Coordinates
version=1
nRows=6
nColumns=63
inDegrees=yes

Units are S.I. units (second, meters, Newtons, ...)
If the header above contains a line with 'inDegrees', this indicates whether rotational values are in degrees (yes) or radians (no).

endheader
time	pelvis_tilt	pelvis_list	pelvis_rotation	pelvis_tx	pelvis_ty	pelvis_tz	hip_flexion_r	hip_adduction_r	hip_rotation_r	knee_angle_r	knee_angle_r_beta	ankle_angle_r	subtalar_angle_r	mtp_angle_r	hip_flexion_l	hip_adduction_l	hip_rotation_l	knee_angle_l	knee_angle_l_beta	ankle_angle_l	subtalar_angle_l	mtp_angle_l	L5_S1_Flex_Ext	L5_S1_Lat_Bending	L5_S1_axial_rotation	L4_L5_Flex_Ext	L4_L5_Lat_Bending	L4_L5_axial_rotation	L3_L4_Flex_Ext	L3_L4_Lat_Bending	L3_L4_axial_rotation	L2_L3_Flex_Ext	L2_L3_Lat_Bending	L2_L3_axial_rotation	L1_L2_Flex_Ext	L1_L2_Lat_Bending	L1_L2_axial_rotation	L1_T12_Flex_Ext	L1_T12_Lat_Bending	L1_T12_axial_rotation	Abs_r3	Abs_r2	Abs_r1	Abs_t1	Abs_t2	neck_flexion	neck_bending	neck_rotation	arm_flex_r	arm_add_r	arm_rot_r	elbow_flex_r	pro_sup_r	wrist_flex_r	wrist_dev_r	arm_flex_l	arm_add_l	arm_rot_l	elbow_flex_l	pro_sup_l	wrist_flex_l	wrist_dev_l
6.396552	-4.081149	-2.224964	67.104933	0.325905	1.019568	0.406490	7.422730	-0.176765	14.771121	13.383034	0.233578	34.321260	0.909398	0.000000	-0.892596	1.055729	-4.138991	1.697441	0.029626	32.297762	-10.543588	0.000000	-1.445428	-0.692143	13.671203	-2.684305	-0.920550	14.525653	-2.374694	-1.682876	14.525653	-1.651980	-1.682876	11.962303	-1.342225	-1.411417	11.107853	-0.825918	-1.072129	10.253402	-10.324550	-7.829656	76.035130	0.000000	0.000000	-14.663367	17.649500	-43.883234	-24.922992	4.597598	-102.381596	143.757454	82.054819	-17.468247	-9.882675	78.778316	28.812119	159.889431	0.054157	0.636132	-69.896196	-24.497281
6.413793	-4.823112	-3.063391	66.679953	0.327302	1.018229	0.407070	8.580677	-0.524909	14.941217	13.430595	0.234408	34.667370	1.365298	0.000000	0.035903	1.498590	-3.336570	1.323395	0.023098	31.757115	-12.014596	0.000000	-1.414984	-0.845297	13.573035	-2.627766	-1.124245	14.421349	-2.324677	-2.055256	14.421349	-1.617185	-2.055256	11.876405	-1.313954	-1.723730	11.028091	-0.808522	-1.309366	10.179776	-10.107086	-9.562173	75.489147	0.000000	0.000000	-13.887191	17.239437	-43.907347	-23.747824	4.211784	-100.361411	143.937507	82.305941	-17.737188	-9.644124	79.569872	27.722355	159.713877	0.055129	0.648565	-69.893868	-24.490318
6.431034	-5.368243	-3.790638	66.501426	0.327881	1.017277	0.407635	9.525195	-0.773644	14.848676	13.404082	0.233945	34.889620	1.823973	0.000000	0.897395	1.769709	-2.788947	1.123495	0.019609	31.433344	-12.903014	0.000000	-1.390179	-0.962997	13.403614	-2.581701	-1.280786	14.241340	-2.283925	-2.341430	14.241340	-1.588835	-2.341430	11.728163	-1.290920	-1.963743	10.890437	-0.794348	-1.491682	10.052711	-9.929909	-10.893611	74.546883	0.000000	0.000000	-13.202643	16.751270	-44.002801	-22.429923	3.528047	-97.650833	143.979179	82.593827	-17.863391	-9.351900	80.130584	26.787840	159.841900	0.056136	0.665203	-69.891082	-24.489275
6.448276	-5.670907	-4.401532	66.598091	0.327483	1.016774	0.408188	10.237542	-0.891810	14.461786	13.292042	0.231990	34.965368	2.282403	0.000000	1.680049	1.835279	-2.494818	1.099333	0.019187	31.343322	-13.153952	0.000000	-1.371417	-1.036596	13.150039	-2.546859	-1.378673	13.971917	-2.253101	-2.520380	13.971917	-1.567393	-2.520380	11.506284	-1.273498	-2.113827	10.684407	-0.783628	-1.605687	9.862529	-9.795895	-11.726183	73.136573	0.000000	0.000000	-12.664841	16.111888	-44.145011	-21.011994	2.505248	-94.243878	143.819061	82.877500	-17.823099	-8.992394	80.372267	26.034484	160.249164	0.057183	0.684549	-69.887966	-24.501095
6.465517	-5.727569	-4.902044	66.939675	0.326136	1.016732	0.408708	10.731717	-0.877003	13.812819	13.108234	0.228782	34.908675	2.762202	0.000000	2.371947	1.698769	-2.509838	1.224919	0.021379	31.479006	-12.720719	0.000000	-1.358293	-1.065605	12.805508	-2.522487	-1.417255	13.605852	-2.231540	-2.590913	13.605852	-1.552393	-2.590913	11.204819	-1.261311	-2.172983	10.404475	-0.776129	-1.650623	9.604131	-9.702153	-12.054343	71.220393	0.000000	0.000000	-12.280996	15.292989	-44.223874	-19.495751	1.136937	-90.128337	143.365987	83.165726	-17.595870	-8.560718	80.235371	25.424698	160.862243	0.058293	0.703960	-69.884530	-24.526057
6.482759	-5.554405	-5.314009	67.500778	0.323904	1.017094	0.409139	11.035268	-0.743232	12.911248	12.857346	0.224403	34.746468	3.292052	0.000000	2.980642	1.381034	-2.900377	1.473775	0.025722	31.846269	-11.512027	0.000000	-1.347174	-1.052375	12.364737	-2.501837	-1.399659	13.137533	-2.213273	-2.558745	13.137533	-1.539686	-2.558745	10.819144	-1.250986	-2.146004	10.046348	-0.769775	-1.630129	9.273552	-9.622732	-11.904680	68.768955	0.000000	0.000000	-12.031366	14.266840	-44.099444	-17.886508	-0.566815	-85.303890	142.531835	83.447634	-17.198753	-8.024315	79.679124	24.880022	161.613822	0.059531	0.723343	-69.880505	-24.551141
